<?xml version="1.0" standalone="no"?>
<!DOCTYPE svg PUBLIC "-//W3C//DTD SVG 20010904//EN"
 "http://www.w3.org/TR/2001/REC-SVG-20010904/DTD/svg10.dtd">
<svg version="1.0" xmlns="http://www.w3.org/2000/svg"
 width="600.000000pt" height="600.000000pt" viewBox="0 0 600.000000 600.000000"
 preserveAspectRatio="xMidYMid meet">
<metadata>
Created by potrace 1.11, written by Peter Selinger 2001-2013
</metadata>
<g transform="translate(0.000000,600.000000) scale(0.100000,-0.100000)"
fill="#000000" stroke="none">
<path d="M199 5323 c-9 -10 -16 -53 -19 -112 l-5 -96 -73 -3 c-46 -2 -79 2
-88 9 -12 10 -14 -11 -14 -140 l0 -151 309 0 c235 0 311 -3 319 -12 6 -8 13
-237 17 -631 l8 -617 21 -5 c11 -3 193 -4 403 -2 247 2 387 -1 393 -7 5 -5 10
-49 10 -97 0 -58 4 -90 12 -95 18 -11 585 -7 711 5 112 11 140 22 270 103 50
32 150 161 162 211 10 38 21 42 51 18 54 -42 149 -14 184 54 20 40 28 45 76
45 23 0 47 6 53 14 8 10 11 149 9 509 -2 272 -1 498 3 501 6 7 962 14 1037 8
l52 -4 0 -494 c0 -481 1 -495 20 -514 15 -15 33 -20 69 -20 45 0 50 -2 62 -31
22 -54 116 -77 180 -43 42 21 54 14 68 -42 7 -27 36 -81 68 -127 45 -64 64
-82 102 -98 25 -11 69 -31 96 -46 95 -49 222 -63 571 -63 l311 0 7 41 c4 22 4
56 0 75 -3 19 -3 50 0 69 l7 35 169 0 170 0 0 30 0 30 -164 0 c-119 0 -166 3
-173 13 -5 7 -9 95 -9 202 l1 190 118 3 117 3 0 288 c0 256 -2 290 -17 302
-12 11 -82 15 -317 19 l-301 5 -3 88 c-1 48 1 87 5 88 4 0 168 2 363 3 195 2
361 4 368 4 9 2 12 58 12 247 0 236 -1 245 -19 245 -22 0 -29 -33 -34 -150
l-2 -65 -77 -3 c-94 -3 -97 1 -96 118 1 69 -2 85 -17 96 -14 11 -111 13 -484
11 l-466 -2 -3 -107 c-3 -125 1 -121 -117 -116 l-70 3 -5 110 -5 110 -475 0
-475 0 -5 -110 -5 -110 -74 -3 c-41 -2 -78 1 -82 5 -4 4 -10 53 -13 107 -4 65
-10 102 -18 108 -7 4 -224 7 -483 5 l-470 -2 -5 -110 -5 -110 -82 -3 c-46 -2
-84 1 -84 5 -1 4 -3 50 -4 101 -2 52 -8 98 -14 106 -10 12 -89 14 -484 13
l-472 -2 -5 -110 -5 -110 -90 0 -90 0 -3 105 c-2 60 -7 107 -13 111 -6 3 -219
7 -474 7 -416 1 -464 0 -476 -15z m906 -46 c7 -20 13 -330 8 -359 l-5 -28
-424 0 c-417 0 -423 0 -434 21 -8 13 -9 76 -6 192 3 95 6 175 6 180 0 4 191 7
425 7 323 -1 427 -4 430 -13z m1149 5 c4 -7 9 -224 7 -339 l-1 -53 -424 0
c-279 0 -427 4 -431 10 -8 12 -7 369 1 381 7 11 841 12 848 1z m1157 -154 c3
-86 3 -174 0 -195 l-6 -38 -425 0 -425 0 -3 185 c-1 101 0 190 2 197 4 11 90
13 428 11 l423 -3 6 -157z m1144 150 c7 -22 14 -305 8 -347 l-6 -41 -412 0
c-228 0 -420 3 -429 6 -14 5 -16 31 -16 188 0 125 4 186 12 194 17 17 837 17
843 0z m1162 -4 c3 -8 6 -97 7 -197 l1 -182 -435 0 -435 0 -3 185 c-1 101 0
190 2 197 4 10 94 13 431 13 378 0 426 -2 432 -16z m-539 -446 c8 -7 12 -41
12 -103 0 -65 4 -96 13 -104 9 -7 114 -12 318 -13 l304 -3 0 -255 0 -255 -85
0 -85 0 -5 97 c-3 60 -10 102 -18 110 -10 10 -70 14 -235 16 -348 4 -525 -23
-671 -102 -67 -37 -97 -60 -132 -104 -52 -67 -94 -146 -94 -179 0 -31 -21 -29
-55 7 -58 61 -147 46 -186 -32 -12 -24 -23 -44 -24 -46 -8 -9 -64 -12 -69 -4
-12 20 -10 939 2 959 8 13 58 14 807 19 116 1 195 -2 203 -8z m-3380 -77 c2
-41 -1 -78 -5 -82 -5 -5 -126 -9 -270 -9 -201 -1 -266 -5 -280 -15 -17 -12
-18 -34 -18 -303 0 -228 3 -293 14 -306 11 -13 34 -16 122 -16 104 0 109 -1
114 -22 3 -13 4 -99 3 -193 l-3 -170 -374 -3 c-267 -2 -378 1 -387 9 -12 9
-14 113 -14 594 0 320 3 585 7 588 3 4 250 6 547 5 l541 -3 3 -74z m1150 -407
c2 -408 0 -483 -12 -487 -26 -10 -56 5 -76 39 -32 51 -77 75 -123 64 -21 -4
-49 -15 -62 -24 -25 -16 -25 -16 -55 44 -66 131 -122 190 -250 263 -91 52
-249 70 -623 69 -167 -1 -243 -4 -253 -13 -10 -8 -14 -37 -14 -110 0 -62 -4
-100 -11 -105 -18 -11 -163 -12 -176 -1 -10 7 -13 70 -13 254 0 186 3 245 13
248 6 2 134 6 282 7 l270 3 3 105 c1 58 4 111 7 118 3 10 118 12 547 10 l543
-3 3 -481z m2565 -83 l87 -1 0 -430 0 -430 -217 -1 c-313 -2 -367 -1 -415 11
-24 5 -63 10 -88 10 -35 0 -58 8 -97 34 -28 18 -65 39 -82 47 -35 15 -139 138
-145 172 -3 12 -10 50 -17 84 -12 62 -8 123 14 198 29 103 149 218 273 260 90
30 311 52 509 49 50 -1 129 -2 178 -3z m-3377 -16 c126 -17 179 -33 249 -72
75 -42 87 -52 139 -120 58 -77 76 -127 76 -212 0 -94 -20 -162 -71 -235 -42
-62 -56 -72 -186 -147 -63 -37 -144 -44 -503 -44 l-305 0 -3 410 c-1 225 0
416 3 422 7 19 459 18 601 -2z m2262 -326 c52 -18 68 -125 21 -149 -25 -14
-91 -12 -110 3 -39 29 -31 123 12 144 30 16 38 16 77 2z m-1589 -36 c30 -38
35 -65 17 -107 -15 -36 -16 -36 -73 -36 -33 0 -64 5 -71 12 -16 16 -15 110 1
130 29 37 98 38 126 1z"/>
<path d="M544 5212 c-17 -15 -39 -32 -50 -38 -15 -10 -17 -14 -6 -25 10 -11
16 -11 33 -1 11 7 24 10 29 7 5 -3 9 -47 9 -97 0 -90 10 -123 31 -102 14 14 9
276 -5 280 -5 2 -24 -9 -41 -24z"/>
<path d="M745 5226 c-40 -18 -62 -43 -47 -58 8 -8 18 -5 38 11 15 11 35 21 45
21 59 0 68 -43 13 -66 -38 -16 -41 -35 -6 -44 25 -6 62 -36 62 -50 0 -19 -40
-50 -64 -50 -13 0 -35 9 -49 20 -30 24 -47 26 -47 6 0 -18 61 -66 83 -66 9 0
35 7 57 16 32 13 42 23 50 52 8 29 6 42 -9 67 -16 27 -17 35 -5 57 11 21 10
29 -6 56 -11 18 -25 32 -32 32 -7 0 -22 2 -33 5 -11 3 -34 -1 -50 -9z"/>
<path d="M1711 5221 c-11 -11 -34 -27 -51 -36 -51 -26 -31 -47 28 -29 22 6 22
5 22 -94 0 -97 9 -127 31 -105 8 8 13 132 10 251 -1 37 -13 40 -40 13z"/>
<path d="M1883 5230 c-28 -11 -49 -48 -35 -62 7 -7 20 -2 41 13 25 19 36 21
59 13 21 -7 28 -17 30 -42 3 -30 -4 -40 -68 -102 -40 -38 -70 -74 -68 -82 6
-16 166 -24 182 -8 18 18 -11 34 -64 33 -60 -1 -66 16 -16 47 74 45 100 140
50 179 -28 22 -73 26 -111 11z"/>
<path d="M2879 5217 c-15 -12 -36 -30 -49 -40 -28 -23 -13 -45 18 -28 38 20
41 14 44 -91 2 -84 6 -103 18 -103 13 0 15 22 15 139 0 84 -4 141 -10 142 -5
2 -22 -7 -36 -19z"/>
<path d="M3095 5230 c-4 -6 -24 -22 -46 -36 -43 -27 -55 -61 -16 -50 50 16 50
16 53 -83 3 -94 14 -125 34 -105 15 15 9 276 -7 281 -6 2 -14 -1 -18 -7z"/>
<path d="M4000 5215 c-13 -13 -31 -27 -42 -31 -21 -6 -25 -44 -4 -44 8 0 18 5
21 10 3 6 13 10 20 10 11 0 15 -22 17 -102 2 -84 6 -103 18 -103 19 0 26 65
22 193 -4 101 -11 110 -52 67z"/>
<path d="M4187 5224 c-35 -19 -47 -50 -47 -125 0 -106 27 -141 107 -141 66 0
101 68 88 171 -12 94 -75 134 -148 95z m93 -56 c15 -24 20 -48 19 -83 -3 -66
-5 -71 -39 -85 -36 -15 -67 0 -76 36 -9 37 0 130 15 148 23 27 59 19 81 -16z"/>
<path d="M5256 5235 c-42 -15 -39 -13 -55 -42 -19 -37 -13 -79 16 -113 25 -31
29 -32 80 -25 58 7 65 0 30 -33 -27 -25 -69 -29 -87 -7 -15 19 -50 20 -50 2 0
-28 45 -57 89 -57 77 0 121 73 105 176 -7 48 -41 98 -72 106 -11 3 -36 0 -56
-7z m78 -57 c30 -43 16 -73 -41 -84 -37 -7 -63 16 -63 56 0 50 75 70 104 28z"/>
<path d="M4895 4688 c-3 -8 -4 -72 -3 -144 l3 -129 35 -3 c128 -12 208 59 154
136 -13 19 -14 28 -4 52 14 34 6 66 -21 81 -11 5 -51 13 -89 16 -55 5 -71 3
-75 -9z m141 -49 c18 -20 18 -21 -1 -35 -10 -8 -38 -14 -62 -14 -41 0 -43 2
-43 28 0 37 6 42 50 42 25 0 43 -7 56 -21z m2 -105 c49 -34 11 -87 -59 -82
-43 3 -44 4 -47 42 -2 24 2 42 10 47 21 14 72 10 96 -7z"/>
<path d="M1959 4684 c-5 -7 -8 -70 -7 -140 l3 -129 75 0 c96 0 129 20 130 79
0 23 -7 47 -17 58 -15 17 -15 21 0 54 17 34 17 35 -8 59 -24 24 -31 26 -133
29 -19 1 -38 -4 -43 -10z m149 -47 c10 -8 9 -14 -5 -29 -23 -26 -106 -22 -111
5 -7 33 17 49 62 41 23 -3 47 -11 54 -17z m-1 -108 c20 -17 16 -57 -7 -69 -12
-6 -40 -10 -63 -8 -39 3 -42 5 -45 34 -4 44 20 66 66 59 19 -3 41 -10 49 -16z"/>
<path d="M2 5280 c0 -19 2 -27 5 -17 2 9 2 25 0 35 -3 9 -5 1 -5 -18z"/>
<path d="M1 5214 c0 -11 3 -14 6 -6 3 7 2 16 -1 19 -3 4 -6 -2 -5 -13z"/>
<path d="M3080 4693 c0 -5 18 -33 39 -64 59 -86 71 -113 71 -169 0 -43 3 -50
20 -50 18 0 20 7 20 58 0 55 4 65 54 140 30 45 51 84 45 87 -20 13 -46 -7 -77
-60 -18 -30 -37 -55 -41 -55 -4 0 -22 20 -40 45 -17 24 -39 51 -47 60 -16 16
-44 21 -44 8z"/>
<path d="M3750 4694 c0 -3 23 -38 52 -78 47 -65 53 -77 56 -134 3 -43 9 -65
19 -69 21 -8 25 1 29 62 5 64 11 79 66 151 43 57 47 74 19 74 -18 0 -91 -88
-91 -110 0 -23 -22 -7 -60 44 -38 50 -57 66 -81 66 -5 0 -9 -3 -9 -6z"/>
<path d="M382 4678 c-20 -25 -103 -260 -98 -275 6 -14 9 -14 26 2 11 10 20 26
20 35 0 30 25 41 86 38 55 -3 58 -5 68 -35 15 -45 33 -62 42 -39 5 14 -28 116
-66 201 -5 11 -12 31 -16 45 -10 39 -41 52 -62 28z m51 -101 c12 -37 3 -57
-27 -57 -33 0 -40 14 -26 56 14 42 39 43 53 1z"/>
<path d="M228 2711 c-30 -8 -38 -36 -38 -127 0 -99 -4 -108 -50 -110 -143 -3
-140 -3 -140 -26 0 -22 3 -23 92 -23 l93 0 0 -195 0 -195 -70 -3 c-38 -1 -80
-4 -92 -7 l-23 -5 0 -250 0 -250 63 0 c34 0 177 0 318 0 197 0 258 -2 266 -12
15 -18 16 -248 2 -265 -9 -10 -78 -13 -330 -13 l-319 0 0 -251 c0 -164 3 -248
10 -244 6 3 10 48 10 100 0 54 4 97 10 100 14 9 120 15 142 9 16 -5 18 -18 18
-98 0 -78 3 -96 18 -110 17 -15 62 -16 488 -14 l469 3 5 105 c5 101 6 104 30
111 35 10 132 10 147 1 8 -5 13 -44 15 -112 l3 -105 474 -3 c324 -1 478 1 485
8 6 6 13 57 16 113 l5 102 80 0 80 0 2 -90 c2 -49 5 -100 8 -113 l5 -22 475 0
c551 0 495 -15 495 129 0 104 -3 102 105 98 l60 -2 2 -90 c2 -49 5 -100 8
-113 l5 -22 470 0 c337 0 471 3 476 11 4 6 7 53 8 103 1 50 5 97 9 104 9 13
92 16 145 6 l31 -6 3 -107 3 -106 472 -3 c408 -2 473 0 486 13 11 11 16 39 16
107 0 50 5 96 9 100 5 5 42 8 83 6 l74 -3 5 -97 c4 -75 9 -101 23 -115 16 -16
17 -5 17 240 l0 257 -342 2 -343 3 -5 612 c-3 336 -9 615 -13 620 -5 4 -187
10 -405 13 l-397 5 -3 98 c-2 88 -5 98 -25 112 -18 11 -67 14 -262 13 -131 -1
-282 -7 -334 -14 -118 -15 -219 -32 -229 -37 -128 -67 -176 -105 -228 -175
-29 -41 -59 -92 -64 -113 -12 -44 -15 -45 -57 -24 -73 37 -162 15 -194 -46
-19 -37 -21 -39 -69 -39 -45 0 -52 -3 -60 -26 -6 -15 -10 -219 -10 -509 0
-431 -2 -484 -16 -489 -9 -3 -258 -6 -554 -6 -420 0 -541 3 -547 13 -4 6 -8
234 -8 505 0 426 -2 494 -15 503 -8 5 -49 9 -90 8 -106 -2 -106 -2 -118 26 -6
13 -31 38 -54 56 -36 25 -50 30 -82 26 -23 -3 -50 -16 -67 -33 -33 -32 -41
-27 -59 31 -19 61 -116 192 -164 222 -70 45 -158 80 -231 92 -38 7 -90 17
-114 23 -41 11 -582 19 -613 9z m625 -61 c201 -23 278 -61 394 -198 32 -38 58
-102 80 -201 12 -52 -32 -194 -86 -277 -29 -43 -45 -56 -124 -94 -125 -60
-195 -69 -559 -70 -164 -1 -302 1 -308 5 -7 4 -10 148 -10 425 l0 419 38 3
c81 7 483 -2 575 -12z m3578 -317 c2 -357 -1 -526 -8 -533 -2 -3 -129 -5 -281
-4 -300 1 -471 15 -512 43 -14 10 -52 31 -85 47 -51 25 -67 39 -107 99 -55 83
-84 181 -74 255 10 72 51 166 97 223 44 54 162 136 214 150 99 26 219 35 478
36 l277 1 1 -317z m823 81 c3 -9 6 -276 6 -595 l0 -579 -22 -5 c-13 -3 -259
-4 -548 -3 l-525 3 0 140 0 140 329 2 c182 1 336 5 343 7 18 7 19 481 1 492
-7 5 -84 10 -172 14 l-160 5 -6 25 c-8 35 -5 343 4 358 5 9 99 12 376 12 326
0 369 -2 374 -16z m-3717 -110 c29 -22 33 -30 33 -74 0 -41 -4 -52 -26 -69
-35 -28 -86 -27 -119 2 -19 17 -26 32 -27 66 -1 38 3 48 30 73 40 35 65 35
109 2z m1716 17 c13 -5 32 -26 41 -46 14 -29 15 -42 6 -69 -12 -39 -25 -46
-81 -46 -52 0 -74 13 -87 49 -13 36 11 90 48 108 30 15 41 16 73 4z m-1485
-119 c10 -7 12 -111 10 -488 l-3 -479 -530 0 -530 0 -5 158 c-4 125 -8 160
-20 167 -9 6 -150 10 -330 10 -173 0 -321 4 -328 8 -9 7 -12 54 -10 203 l3
194 80 0 80 0 3 -104 c2 -60 8 -111 14 -119 10 -11 68 -13 327 -10 378 4 460
16 586 81 44 23 89 46 101 51 11 6 31 26 43 45 12 20 38 59 57 86 19 28 37 67
41 88 7 43 28 58 46 34 15 -19 59 -37 93 -37 33 0 90 40 120 84 24 34 27 36
82 36 31 0 63 -4 70 -8z m1310 -10 c9 -9 27 -30 38 -46 18 -25 31 -31 80 -37
42 -5 67 -3 88 7 41 20 44 18 52 -23 16 -91 101 -204 187 -252 34 -18 69 -40
78 -47 8 -8 42 -19 75 -24 32 -6 82 -16 109 -22 51 -12 651 -23 692 -13 21 5
22 11 25 123 l3 117 145 0 145 0 1 -190 c1 -115 -2 -195 -8 -202 -8 -10 -87
-13 -334 -13 -247 0 -325 -3 -331 -12 -4 -7 -10 -83 -13 -168 l-5 -155 -539
-3 c-425 -2 -541 0 -548 10 -4 7 -8 223 -8 480 0 434 1 468 18 477 24 14 29
14 50 -7z m-805 -1207 c-2 -104 -5 -195 -7 -202 -4 -10 -94 -13 -425 -13
l-421 0 -5 23 c-3 12 -4 103 -3 202 l3 180 160 5 c88 3 282 3 430 0 l270 -5
-2 -190z m1151 185 c4 -4 4 -94 0 -202 l-9 -193 -419 -3 c-329 -2 -421 0 -428
10 -4 7 -8 100 -8 206 l0 194 249 -3 c138 -2 252 -1 255 1 8 9 351 -1 360 -10z
m841 10 c99 1 200 3 225 5 25 1 56 -2 69 -7 l24 -8 -7 -193 c-4 -105 -11 -195
-15 -200 -4 -4 -196 -6 -427 -5 l-419 3 0 200 0 200 160 6 c88 3 171 3 185 1
14 -3 106 -4 205 -2z m1463 2 c9 -2 12 -48 12 -191 0 -104 -3 -196 -6 -205 -5
-14 -53 -16 -428 -16 -315 0 -425 3 -434 12 -16 16 -17 395 -2 400 11 3 835 3
858 0z m-4606 -9 c2 -5 1 -96 -2 -203 l-5 -195 -425 0 -425 0 -7 185 c-3 102
-4 193 -1 203 4 16 33 17 433 17 236 0 430 -3 432 -7z"/>
<path d="M834 1647 c-2 -7 -3 -71 -2 -143 l3 -129 64 -3 c35 -2 77 2 93 9 58
24 75 84 37 126 -16 16 -19 26 -12 35 20 25 21 58 4 79 -26 32 -176 53 -187
26z m156 -53 c21 -21 -6 -44 -59 -49 -37 -4 -43 -1 -53 20 -17 38 5 58 56 50
23 -4 48 -13 56 -21z m-2 -106 c16 -16 15 -53 -2 -67 -8 -7 -36 -11 -63 -9
-44 3 -48 5 -51 31 -6 48 3 57 56 57 26 0 53 -5 60 -12z"/>
<path d="M3832 1652 c-9 -6 -12 -42 -10 -143 l3 -134 67 -3 c81 -3 125 15 134
56 3 15 7 32 9 39 2 6 -6 24 -17 39 -17 21 -19 30 -10 45 19 31 14 67 -12 84
-27 18 -145 30 -164 17z m141 -49 c4 -2 7 -13 7 -23 0 -22 -4 -25 -50 -34 -49
-8 -75 11 -66 49 7 26 9 27 54 20 26 -4 50 -9 55 -12z m11 -122 c14 -15 15
-24 7 -40 -13 -24 -44 -34 -92 -29 -29 3 -34 7 -37 31 -6 48 3 57 56 57 35 0
54 -5 66 -19z"/>
<path d="M1781 1094 c-17 -14 -31 -32 -31 -40 0 -21 34 -17 55 6 19 21 51 26
74 11 21 -14 -1 -58 -31 -63 -33 -4 -37 -38 -5 -38 14 0 35 -9 48 -19 23 -19
23 -21 9 -48 -20 -36 -55 -41 -92 -13 -28 21 -58 21 -58 1 0 -18 66 -61 94
-61 39 0 80 24 94 55 16 35 15 52 -5 85 -14 24 -15 34 -5 55 10 21 9 32 -3 54
-24 48 -96 55 -144 15z"/>
<path d="M2967 1029 c-37 -50 -67 -100 -67 -110 0 -21 29 -31 80 -27 31 3 35
0 40 -27 7 -39 40 -48 40 -11 0 15 8 31 20 38 11 7 20 17 20 23 0 6 -9 16 -20
23 -17 11 -20 23 -20 97 0 62 -3 85 -13 85 -6 0 -42 -41 -80 -91z m53 -49 c0
-34 -3 -40 -26 -46 -43 -11 -50 10 -18 50 16 20 32 36 37 36 4 0 7 -18 7 -40z"/>
<path d="M4080 1116 c-13 -16 -34 -136 -25 -144 3 -3 27 2 53 11 45 17 47 17
72 -2 19 -14 24 -26 22 -52 -5 -61 -46 -78 -95 -39 -46 36 -81 15 -39 -23 91
-83 222 6 167 112 -20 39 -47 53 -93 49 -34 -3 -37 -1 -37 22 0 23 4 25 62 30
104 8 99 34 -9 43 -49 5 -69 3 -78 -7z"/>
<path d="M5275 1115 c-41 -18 -60 -42 -72 -90 -10 -46 -1 -129 18 -151 23 -28
69 -46 99 -39 40 9 80 58 80 100 0 43 -60 101 -94 90 -53 -17 -66 -17 -66 -3
0 20 42 58 64 58 9 0 30 -10 47 -22 25 -19 32 -20 39 -8 13 21 -7 50 -45 66
-19 8 -36 14 -37 13 -2 0 -17 -7 -33 -14z m68 -153 c23 -20 22 -47 -3 -72 -26
-26 -54 -25 -80 2 -31 34 -26 66 12 83 34 14 41 12 71 -13z"/>
<path d="M633 1105 c-13 -9 -28 -25 -33 -36 -16 -30 13 -35 49 -9 40 30 77 21
86 -20 8 -35 -14 -67 -73 -111 -42 -31 -68 -71 -58 -88 7 -11 168 -16 179 -5
3 3 3 12 0 20 -3 10 -22 14 -59 14 -62 0 -71 16 -26 46 75 49 105 128 67 178
-20 26 -102 33 -132 11z"/>
<path d="M1962 1671 c-10 -6 -1 -27 38 -85 46 -68 53 -83 58 -141 4 -55 8 -65
23 -65 16 0 19 8 19 59 0 53 4 65 50 135 52 80 58 96 37 96 -17 0 -60 -47 -81
-87 -9 -18 -20 -33 -25 -33 -4 0 -22 22 -39 48 -39 61 -64 83 -80 73z"/>
<path d="M2643 1664 c-3 -10 0 -22 8 -28 48 -37 99 -147 99 -211 0 -39 3 -46
18 -43 13 2 18 16 22 64 4 52 12 72 53 133 27 40 46 79 43 87 -9 24 -39 1 -77
-60 -19 -31 -37 -56 -40 -56 -3 0 -27 29 -53 65 -50 68 -62 76 -73 49z"/>
<path d="M5510 1638 c-5 -13 -29 -76 -54 -141 -39 -103 -42 -119 -28 -124 9
-4 17 -2 19 3 2 5 12 25 21 44 17 34 19 35 76 35 58 0 59 0 71 -34 11 -34 38
-61 49 -50 7 7 -23 99 -35 114 -5 5 -9 17 -9 27 0 10 -13 48 -29 83 -23 50
-35 65 -51 65 -12 0 -24 -9 -30 -22z m55 -74 c22 -54 20 -64 -18 -64 -19 0
-36 3 -40 6 -10 10 25 94 39 94 2 0 11 -16 19 -36z"/>
</g>
</svg>
